<svg width="293" height="67" viewBox="0 0 293 67" fill="none" xmlns="http://www.w3.org/2000/svg">
<path d="M86.88 0.672233H96.6L111.432 38.7602L126.336 0.672233H135.984L115.896 51.0002H107.04L86.88 0.672233Z" fill="white"/>
<path d="M148.242 52.0802C144.114 52.0802 140.73 51.0002 138.09 48.8402C135.45 46.6322 134.13 43.6802 134.13 39.9842C134.13 36.1442 135.378 33.1442 137.874 30.9842C140.37 28.8242 143.874 27.7442 148.386 27.7442C152.754 27.7442 156.522 28.6322 159.69 30.4082V29.4722C159.69 27.0242 158.922 25.2482 157.386 24.1442C155.898 23.0402 153.474 22.4882 150.114 22.4882C148.002 22.4882 145.914 22.7042 143.85 23.1362C141.786 23.5202 139.962 24.0722 138.378 24.7922V17.6642C139.818 16.9922 141.738 16.4402 144.138 16.0082C146.586 15.5762 148.938 15.3602 151.194 15.3602C157.194 15.3602 161.634 16.6562 164.514 19.2482C167.394 21.7922 168.834 25.3442 168.834 29.9042V51.0002H160.266V47.6162C158.778 49.0562 157.074 50.1602 155.154 50.9282C153.282 51.6962 150.978 52.0802 148.242 52.0802ZM150.474 45.4562C152.49 45.4562 154.314 45.0722 155.946 44.3042C157.578 43.4882 158.826 42.3842 159.69 40.9922V37.1762C157.05 35.3042 154.026 34.3682 150.618 34.3682C145.77 34.3682 143.346 36.2402 143.346 39.9842C143.346 41.8082 143.946 43.1762 145.146 44.0882C146.394 45.0002 148.17 45.4562 150.474 45.4562Z" fill="white"/>
<path d="M177.125 16.4402H185.909V21.9842C187.301 20.1122 189.269 18.7202 191.813 17.8082C194.405 16.8962 197.357 16.4402 200.669 16.4402V23.3522C197.165 23.3522 194.117 23.9042 191.525 25.0082C188.981 26.0642 187.205 27.7442 186.197 30.0482V51.0002H177.125V16.4402Z" fill="white"/>
<path d="M220.341 52.0802C216.549 52.0802 213.669 51.0242 211.701 48.9122C209.733 46.8002 208.749 43.8242 208.749 39.9842V23.3522H203.565V16.4402H208.749V6.07224H217.821V16.4402H226.101V23.3522H217.821V38.8322C217.821 41.0402 218.229 42.6242 219.045 43.5842C219.861 44.4962 221.349 44.9522 223.509 44.9522C224.997 44.9522 226.461 44.6162 227.901 43.9442V50.8562C225.837 51.6722 223.317 52.0802 220.341 52.0802Z" fill="white"/>
<path d="M239.471 10.3922C238.031 10.3922 236.807 9.91224 235.799 8.95223C234.839 7.99224 234.359 6.79224 234.359 5.35224C234.359 3.91224 234.839 2.71224 235.799 1.75224C236.807 0.744235 238.031 0.240234 239.471 0.240234C240.911 0.240234 242.135 0.744235 243.143 1.75224C244.151 2.71224 244.655 3.91224 244.655 5.35224C244.655 6.79224 244.151 7.99224 243.143 8.95223C242.135 9.91224 240.911 10.3922 239.471 10.3922ZM234.863 16.4402H244.079V51.0002H234.863V16.4402Z" fill="white"/>
<path d="M283.441 47.6162C281.809 49.1042 279.817 50.2322 277.465 51.0002C275.161 51.7202 272.689 52.0802 270.049 52.0802C266.545 52.0802 263.401 51.3122 260.617 49.7762C257.881 48.1922 255.721 46.0082 254.137 43.2242C252.601 40.4402 251.833 37.2482 251.833 33.6482C251.833 30.0002 252.601 26.8082 254.137 24.0722C255.721 21.2882 257.881 19.1522 260.617 17.6642C263.401 16.1282 266.545 15.3602 270.049 15.3602C272.881 15.3602 275.401 15.7922 277.609 16.6562C279.817 17.5202 281.857 18.8402 283.729 20.6162V16.4402H292.513V66.7682H283.441V47.6162ZM272.281 44.9522C274.873 44.9522 277.177 44.2562 279.193 42.8642C281.257 41.4242 282.673 39.5282 283.441 37.1762V30.1922C282.625 27.8402 281.209 25.9682 279.193 24.5762C277.177 23.1842 274.873 22.4882 272.281 22.4882C269.017 22.4882 266.329 23.5202 264.217 25.5842C262.105 27.6482 261.049 30.3362 261.049 33.6482C261.049 36.9602 262.105 39.6722 264.217 41.7842C266.329 43.8962 269.017 44.9522 272.281 44.9522Z" fill="white"/>
<path d="M73.9469 0.461623L37.6793 54.8738C37.5684 55.0402 37.332 55.0424 37.2181 54.8782L28.1512 41.7984C28.0666 41.6763 28.0851 41.5076 28.194 41.4084L73.5285 0.0760316C73.7783 -0.151688 74.136 0.177964 73.9469 0.461623Z" fill="url(#paint0_linear_241_8341)"/>
<path d="M65.1226 4.32256L25.6104 37.5701C25.4841 37.6764 25.2974 37.6502 25.2029 37.5128L17.7006 26.6035C17.5979 26.4541 17.6518 26.2446 17.8128 26.1681L64.8272 3.82992C65.1285 3.68676 65.3799 4.10605 65.1226 4.32256Z" fill="url(#paint1_linear_241_8341)"/>
<path d="M52.5027 7.07228L15.0842 22.4139C14.9631 22.4636 14.8248 22.4208 14.7498 22.3104L8.84162 13.6168C8.72068 13.4388 8.82314 13.1912 9.03093 13.1593L52.3577 6.5113C52.6892 6.46042 52.8144 6.94448 52.5027 7.07228Z" fill="url(#paint2_linear_241_8341)"/>
<path d="M34.1895 7.38925L6.11163 9.40054C6.0132 9.40759 5.91836 9.36083 5.86155 9.27723L0.0523249 0.729269C-0.0933352 0.514938 0.0858703 0.225604 0.334568 0.273577L34.2217 6.81026C34.5474 6.87308 34.5201 7.36558 34.1895 7.38925Z" fill="url(#paint3_linear_241_8341)"/>
<defs>
<linearGradient id="paint0_linear_241_8341" x1="46.3372" y1="-5.58607" x2="67.8753" y2="40.1674" gradientUnits="userSpaceOnUse">
<stop offset="0.0576923" stop-color="#4A474A"/>
<stop offset="0.379808" stop-color="#A3A2A4"/>
<stop offset="0.639423" stop-color="#EBE9ED"/>
</linearGradient>
<linearGradient id="paint1_linear_241_8341" x1="46.3372" y1="-5.58607" x2="67.8753" y2="40.1674" gradientUnits="userSpaceOnUse">
<stop offset="0.0576923" stop-color="#4A474A"/>
<stop offset="0.379808" stop-color="#A3A2A4"/>
<stop offset="0.639423" stop-color="#EBE9ED"/>
</linearGradient>
<linearGradient id="paint2_linear_241_8341" x1="46.3372" y1="-5.58607" x2="67.8753" y2="40.1674" gradientUnits="userSpaceOnUse">
<stop offset="0.0576923" stop-color="#4A474A"/>
<stop offset="0.379808" stop-color="#A3A2A4"/>
<stop offset="0.639423" stop-color="#EBE9ED"/>
</linearGradient>
<linearGradient id="paint3_linear_241_8341" x1="46.3372" y1="-5.58607" x2="67.8753" y2="40.1674" gradientUnits="userSpaceOnUse">
<stop offset="0.0576923" stop-color="#4A474A"/>
<stop offset="0.379808" stop-color="#A3A2A4"/>
<stop offset="0.639423" stop-color="#EBE9ED"/>
</linearGradient>
</defs>
</svg>
