<svg width="292" height="67" viewBox="0 0 292 67" fill="none" xmlns="http://www.w3.org/2000/svg">
<path d="M85.88 0.672233H95.6L110.432 38.7602L125.336 0.672233H134.984L114.896 51.0002H106.04L85.88 0.672233Z" fill="#1E1E1E"/>
<path d="M147.242 52.0802C143.114 52.0802 139.73 51.0002 137.09 48.8402C134.45 46.6322 133.13 43.6802 133.13 39.9842C133.13 36.1442 134.378 33.1442 136.874 30.9842C139.37 28.8242 142.874 27.7442 147.386 27.7442C151.754 27.7442 155.522 28.6322 158.69 30.4082V29.4722C158.69 27.0242 157.922 25.2482 156.386 24.1442C154.898 23.0402 152.474 22.4882 149.114 22.4882C147.002 22.4882 144.914 22.7042 142.85 23.1362C140.786 23.5202 138.962 24.0722 137.378 24.7922V17.6642C138.818 16.9922 140.738 16.4402 143.138 16.0082C145.586 15.5762 147.938 15.3602 150.194 15.3602C156.194 15.3602 160.634 16.6562 163.514 19.2482C166.394 21.7922 167.834 25.3442 167.834 29.9042V51.0002H159.266V47.6162C157.778 49.0562 156.074 50.1602 154.154 50.9282C152.282 51.6962 149.978 52.0802 147.242 52.0802ZM149.474 45.4562C151.49 45.4562 153.314 45.0722 154.946 44.3042C156.578 43.4882 157.826 42.3842 158.69 40.9922V37.1762C156.05 35.3042 153.026 34.3682 149.618 34.3682C144.77 34.3682 142.346 36.2402 142.346 39.9842C142.346 41.8082 142.946 43.1762 144.146 44.0882C145.394 45.0002 147.17 45.4562 149.474 45.4562Z" fill="#1E1E1E"/>
<path d="M176.125 16.4402H184.909V21.9842C186.301 20.1122 188.269 18.7202 190.813 17.8082C193.405 16.8962 196.357 16.4402 199.669 16.4402V23.3522C196.165 23.3522 193.117 23.9042 190.525 25.0082C187.981 26.0642 186.205 27.7442 185.197 30.0482V51.0002H176.125V16.4402Z" fill="#1E1E1E"/>
<path d="M219.341 52.0802C215.549 52.0802 212.669 51.0242 210.701 48.9122C208.733 46.8002 207.749 43.8242 207.749 39.9842V23.3522H202.565V16.4402H207.749V6.07224H216.821V16.4402H225.101V23.3522H216.821V38.8322C216.821 41.0402 217.229 42.6242 218.045 43.5842C218.861 44.4962 220.349 44.9522 222.509 44.9522C223.997 44.9522 225.461 44.6162 226.901 43.9442V50.8562C224.837 51.6722 222.317 52.0802 219.341 52.0802Z" fill="#1E1E1E"/>
<path d="M238.471 10.3922C237.031 10.3922 235.807 9.91224 234.799 8.95223C233.839 7.99224 233.359 6.79224 233.359 5.35224C233.359 3.91224 233.839 2.71224 234.799 1.75224C235.807 0.744235 237.031 0.240234 238.471 0.240234C239.911 0.240234 241.135 0.744235 242.143 1.75224C243.151 2.71224 243.655 3.91224 243.655 5.35224C243.655 6.79224 243.151 7.99224 242.143 8.95223C241.135 9.91224 239.911 10.3922 238.471 10.3922ZM233.863 16.4402H243.079V51.0002H233.863V16.4402Z" fill="#1E1E1E"/>
<path d="M282.441 47.6162C280.809 49.1042 278.817 50.2322 276.465 51.0002C274.161 51.7202 271.689 52.0802 269.049 52.0802C265.545 52.0802 262.401 51.3122 259.617 49.7762C256.881 48.1922 254.721 46.0082 253.137 43.2242C251.601 40.4402 250.833 37.2482 250.833 33.6482C250.833 30.0002 251.601 26.8082 253.137 24.0722C254.721 21.2882 256.881 19.1522 259.617 17.6642C262.401 16.1282 265.545 15.3602 269.049 15.3602C271.881 15.3602 274.401 15.7922 276.609 16.6562C278.817 17.5202 280.857 18.8402 282.729 20.6162V16.4402H291.513V66.7682H282.441V47.6162ZM271.281 44.9522C273.873 44.9522 276.177 44.2562 278.193 42.8642C280.257 41.4242 281.673 39.5282 282.441 37.1762V30.1922C281.625 27.8402 280.209 25.9682 278.193 24.5762C276.177 23.1842 273.873 22.4882 271.281 22.4882C268.017 22.4882 265.329 23.5202 263.217 25.5842C261.105 27.6482 260.049 30.3362 260.049 33.6482C260.049 36.9602 261.105 39.6722 263.217 41.7842C265.329 43.8962 268.017 44.9522 271.281 44.9522Z" fill="#1E1E1E"/>
<path d="M73.8289 4.07011L39.1909 54.6043C38.8333 55.126 38.0704 55.1331 37.7033 54.6181L29.0438 42.4705C28.771 42.0878 28.8307 41.5592 29.1817 41.248L72.4792 2.86144C73.2846 2.14736 74.4385 3.18069 73.8289 4.07011Z" fill="url(#paint0_linear_239_8334)"/>
<path d="M63.6656 6.93903L26.5672 37.2947C26.1597 37.6282 25.5573 37.5459 25.2527 37.1151L18.2087 27.1546C17.8774 26.6862 18.0514 26.0297 18.5703 25.7899L62.7128 5.39468C63.6844 4.94575 64.4954 6.26011 63.6656 6.93903Z" fill="url(#paint1_linear_239_8334)"/>
<path d="M49.2659 8.63331L15.4883 22.1002C15.0975 22.2561 14.6515 22.1219 14.4096 21.7757L9.07627 14.1444C8.68633 13.5865 9.01681 12.8103 9.68687 12.7103L48.7978 6.87462C49.8672 6.71506 50.2711 8.23254 49.2659 8.63331Z" fill="url(#paint2_linear_239_8334)"/>
<path d="M30.2251 7.31833L5.98958 9.0065C5.67205 9.02862 5.36614 8.88197 5.18292 8.6198L0.16867 1.44508C-0.300976 0.773077 0.277064 -0.133893 1.07911 0.0165521L30.3289 5.50311C31.3793 5.70013 31.291 7.24408 30.2251 7.31833Z" fill="url(#paint3_linear_239_8334)"/>
<defs>
<linearGradient id="paint0_linear_239_8334" x1="6.56096" y1="8.05773" x2="38.8928" y2="55.3773" gradientUnits="userSpaceOnUse">
<stop offset="0.153846" stop-color="#AEAEAF"/>
<stop offset="0.576923" stop-color="#5C5C5C"/>
<stop offset="0.826923" stop-color="#333333"/>
</linearGradient>
<linearGradient id="paint1_linear_239_8334" x1="6.56096" y1="8.05773" x2="38.8928" y2="55.3773" gradientUnits="userSpaceOnUse">
<stop offset="0.153846" stop-color="#AEAEAF"/>
<stop offset="0.576923" stop-color="#5C5C5C"/>
<stop offset="0.826923" stop-color="#333333"/>
</linearGradient>
<linearGradient id="paint2_linear_239_8334" x1="6.56096" y1="8.05773" x2="38.8928" y2="55.3773" gradientUnits="userSpaceOnUse">
<stop offset="0.153846" stop-color="#AEAEAF"/>
<stop offset="0.576923" stop-color="#5C5C5C"/>
<stop offset="0.826923" stop-color="#333333"/>
</linearGradient>
<linearGradient id="paint3_linear_239_8334" x1="6.56096" y1="8.05773" x2="38.8928" y2="55.3773" gradientUnits="userSpaceOnUse">
<stop offset="0.153846" stop-color="#AEAEAF"/>
<stop offset="0.576923" stop-color="#5C5C5C"/>
<stop offset="0.826923" stop-color="#333333"/>
</linearGradient>
</defs>
</svg>
